# xmcd
#
# Track frame offsets: 
#        180
#        32163
#        60757
#        88528
#        109175
#        139984
#        160282
#        183853
#        205506
#        227139
#        249299
#
# Disc length: 3712 seconds
#
# Revision: 2
# Processed by: cddbd v1.5.2PL0 Copyright (c) Steve Scherf et al.
# Submitted via: ExactAudioCopy v1.0b3
#
DISCID=850e7e0b
DTITLE=Varios Artists - Dancing USA Salsa Mix 1
DYEAR=1996
DGENRE=Salsa
TTITLE0=Africando, Stern's Africa - Yay Boy (Mix)
TTITLE1=Melochita - Cali Flamenca (Mix)
TTITLE2=Alex Leon - La Gota Fria (Mix)
TTITLE3=Costa Bravo - Viviras Siempre (Mix)
TTITLE4=Junior Gonzales - Tu Nuevo Amor (Mix)
TTITLE5=Johnny Ray - Me Estoy Enamorando
TTITLE6=Melochita - Madre
TTITLE7=Joe King - Si No Fueras Tu
TTITLE8=Junior Gonzales - Ole Gitana
TTITLE9=Eddie Montalvo - Enamorado
TTITLE10=Bomba (House)
EXTD=YEAR: 1996
EXTT0=
EXTT1=
EXTT2=
EXTT3=
EXTT4=
EXTT5=
EXTT6=
EXTT7=
EXTT8=
EXTT9=
EXTT10=
PLAYORDER=
